<svg width="22" height="22" viewBox="0 0 22 22" fill="none" xmlns="http://www.w3.org/2000/svg">
<path d="M12.4725 4.63125C12.4725 4.21254 12.3062 3.81098 12.0101 3.51491C11.714 3.21883 11.3125 3.0525 10.8938 3.0525C10.475 3.0525 10.0735 3.21883 9.77741 3.51491C9.48133 3.81098 9.315 4.21254 9.315 4.63125H8.2625C8.2625 3.9334 8.53972 3.26413 9.03318 2.77068C9.52663 2.27722 10.1959 2 10.8938 2C11.5916 2 12.2609 2.27722 12.7543 2.77068C13.2478 3.26413 13.525 3.9334 13.525 4.63125H18.2613C18.4008 4.63125 18.5347 4.68669 18.6334 4.78539C18.7321 4.88408 18.7875 5.01793 18.7875 5.1575C18.7875 5.29707 18.7321 5.43092 18.6334 5.52961C18.5347 5.62831 18.4008 5.68375 18.2613 5.68375H17.6782L16.3141 17.5033C16.2547 18.0163 16.0089 18.4896 15.6232 18.8331C15.2376 19.1766 14.7392 19.3663 14.2228 19.3663H7.56469C7.04828 19.3663 6.54986 19.1766 6.16425 18.8331C5.77865 18.4896 5.53276 18.0163 5.47337 17.5033L4.10828 5.68375H3.52625C3.40308 5.68379 3.2838 5.64063 3.18918 5.56178C3.09456 5.48293 3.03059 5.37338 3.00842 5.25223L3 5.1575C3 5.01793 3.05544 4.88408 3.15414 4.78539C3.25283 4.68669 3.38668 4.63125 3.52625 4.63125H12.4725ZM16.6172 5.68375H5.1692L6.51851 17.3823C6.54821 17.6389 6.67123 17.8756 6.86414 18.0473C7.05706 18.2191 7.3064 18.3139 7.56469 18.3137H14.2228C14.4809 18.3137 14.73 18.2187 14.9227 18.047C15.1154 17.8752 15.2383 17.6387 15.2679 17.3823L16.6172 5.68375ZM9.315 8.315C9.57286 8.315 9.78862 8.47814 9.83283 8.69285L9.84125 8.776V15.2226C9.84125 15.4762 9.60549 15.6825 9.315 15.6825C9.05714 15.6825 8.84138 15.5194 8.79717 15.3047L8.78875 15.2215V8.77705C8.78875 8.52234 9.02451 8.31605 9.315 8.31605V8.315ZM12.4725 8.315C12.7304 8.315 12.9461 8.47814 12.9903 8.69285L12.9987 8.776V15.2226C12.9987 15.4762 12.763 15.6825 12.4725 15.6825C12.2146 15.6825 11.9989 15.5194 11.9547 15.3047L11.9462 15.2215V8.77705C11.9462 8.52234 12.182 8.31605 12.4725 8.31605V8.315Z" fill="#E53170"/>
</svg>
