<svg width="22" height="22" viewBox="0 0 22 22" fill="none" xmlns="http://www.w3.org/2000/svg">
<path d="M20.2322 5.14266L16.7999 1.6928C16.5731 1.46714 16.2661 1.34045 15.9462 1.34045C15.6262 1.34045 15.3193 1.46714 15.0925 1.6928L2.92442 13.8433L1.81345 18.6381C1.77512 18.8133 1.77644 18.9949 1.81729 19.1696C1.85815 19.3443 1.93751 19.5077 2.04959 19.6478C2.16167 19.7879 2.30363 19.9012 2.46511 19.9794C2.62658 20.0576 2.80348 20.0988 2.98289 20.0999C3.06649 20.1083 3.15072 20.1083 3.23432 20.0999L8.08167 18.9889L20.2322 6.85005C20.4579 6.62324 20.5845 6.31631 20.5845 5.99636C20.5845 5.67641 20.4579 5.36947 20.2322 5.14266ZM7.49695 17.9364L2.95365 18.8895L3.98861 14.4339L13.0927 5.36486L16.6011 8.87319L7.49695 17.9364ZM17.3846 8.02534L13.8763 4.51701L15.9111 2.49387L19.361 6.0022L17.3846 8.02534Z" fill="#E53170"/>
</svg>
